<?xml version="1.0" encoding="UTF-8"?>
<svg id="Layer_2" data-name="Layer 2" xmlns="http://www.w3.org/2000/svg" viewBox="0 0 318.15 329.37">
  <defs>
    <style>
      .cls-1 {
        fill: #fff200;
      }
    </style>
  </defs>
  <g id="Layer_1-2" data-name="Layer 1">
    <g>
      <g>
        <rect class="cls-1" x="2.5" y="2.5" width="313.15" height="324.37"/>
        <path d="m318.15,329.37H0V0h318.15v329.37Zm-313.15-5h308.15V5H5v319.37Z"/>
      </g>
      <g>
        <g>
          <path d="m206.66,82.4c3.67,3.93,7.07,7.34,10.2,10.98,3.1,3.62,2.85,8.66-.39,12.68-11.98,14.84-23.97,29.67-35.97,44.49-5.8,7.17-11.61,14.33-17.63,21.77-3.49-3.7-6.86-7.25-10.21-10.82-16.14-17.21-32.26-34.43-48.41-51.64-6.07-6.47-6.36-11.59-.92-18.67,2.18-2.84,4.45-5.61,6.93-8.73,17.31,17.79,34.38,35.31,51.66,53.06,14.88-17.66,29.66-35.21,44.74-53.12Z"/>
          <path d="m118.82,72.49c5.43-6.63,10.61-12.96,16.05-19.6,8.76,10,17.26,19.71,26.1,29.8,7.16-9.95,14.15-19.67,21.43-29.79,5.22,5.61,10.24,11,15.46,16.61-12.1,15.34-24.13,30.6-36.46,46.24-14.21-14.44-28.25-28.7-42.59-43.26Z"/>
          <path d="m157.9,25.32c5.94,6.62,11.61,12.94,17.5,19.51-5.08,6.36-10.11,12.67-15.48,19.4-5.99-6.57-11.75-12.9-17.66-19.39,5.21-6.5,10.26-12.81,15.64-19.51Z"/>
        </g>
        <g>
          <path d="m91.37,249.07c0,.28-.09.54-.28.76-.18.23-.49.41-.91.55s-.99.25-1.69.34c-.7.08-1.59.13-2.66.13s-2.01-.04-2.73-.13c-.72-.08-1.28-.2-1.69-.34-.41-.14-.71-.32-.89-.55-.18-.22-.27-.48-.27-.76v-22.1h-20.45v22.1c0,.28-.08.54-.25.76-.17.23-.46.41-.89.55-.42.14-.99.25-1.69.34-.71.08-1.61.13-2.71.13s-1.96-.04-2.68-.13c-.72-.08-1.29-.2-1.71-.34-.42-.14-.73-.32-.91-.55-.18-.22-.27-.48-.27-.76v-51.63c0-.28.09-.54.27-.76.18-.23.49-.41.91-.55.42-.14.99-.25,1.71-.34.72-.08,1.61-.13,2.68-.13s2,.04,2.71.13c.7.08,1.27.2,1.69.34.42.14.72.32.89.55s.25.48.25.76v20.07h20.45v-20.07c0-.28.09-.54.27-.76.18-.23.48-.41.89-.55.41-.14.97-.25,1.69-.34.72-.08,1.63-.13,2.73-.13s1.96.04,2.66.13c.7.08,1.27.2,1.69.34.42.14.72.32.91.55s.28.48.28.76v51.63Z"/>
          <path d="m148.08,246.45c.34,1.01.55,1.82.63,2.41s-.03,1.04-.34,1.33c-.31.3-.86.48-1.65.55s-1.87.11-3.25.11-2.56-.02-3.36-.06c-.8-.04-1.42-.13-1.84-.25-.42-.13-.72-.3-.89-.53-.17-.22-.31-.52-.42-.89l-3.68-10.99h-20.54l-3.46,10.69c-.11.39-.26.73-.44.99-.18.27-.48.48-.89.63-.41.15-.99.26-1.73.32-.75.06-1.73.08-2.94.08-1.3,0-2.31-.04-3.04-.13-.73-.08-1.24-.29-1.52-.61-.28-.32-.38-.78-.3-1.37s.3-1.38.63-2.37l16.86-48.51c.17-.48.37-.87.59-1.16.23-.29.58-.52,1.08-.68.49-.15,1.18-.25,2.05-.3.87-.04,2.03-.06,3.46-.06,1.66,0,2.99.02,3.97.06.99.04,1.75.14,2.3.3.55.16.94.39,1.18.7.24.31.44.73.61,1.27l16.9,48.47Zm-25.1-40.1h-.04l-7.73,23.24h15.51l-7.73-23.24Z"/>
          <path d="m195.32,234.2c0,1.94-.27,3.7-.8,5.28-.54,1.58-1.28,2.97-2.22,4.18-.94,1.21-2.07,2.25-3.38,3.13-1.31.87-2.75,1.59-4.33,2.16-1.58.56-3.26.98-5.05,1.25-1.79.27-3.78.4-5.98.4h-14.54c-.93,0-1.71-.27-2.35-.82-.63-.55-.95-1.44-.95-2.68v-47.66c0-1.24.32-2.13.95-2.68.63-.55,1.42-.82,2.35-.82h13.73c3.35,0,6.19.28,8.51.84,2.32.56,4.28,1.42,5.87,2.56s2.81,2.58,3.66,4.33c.84,1.75,1.27,3.8,1.27,6.17,0,1.32-.17,2.57-.51,3.74s-.83,2.23-1.48,3.19c-.65.96-1.44,1.8-2.39,2.54-.94.73-2.02,1.32-3.23,1.77,1.55.28,2.98.78,4.29,1.48,1.31.71,2.45,1.61,3.42,2.73.97,1.11,1.74,2.42,2.3,3.91.56,1.49.84,3.17.84,5.03Zm-14.37-23.03c0-1.1-.17-2.08-.51-2.96-.34-.87-.84-1.6-1.52-2.18-.68-.58-1.53-1.02-2.56-1.33-1.03-.31-2.4-.46-4.12-.46h-5.62v14.2h6.21c1.61,0,2.89-.19,3.84-.57.96-.38,1.75-.9,2.39-1.56.63-.66,1.11-1.44,1.42-2.32.31-.89.46-1.82.46-2.81Zm2.83,23.41c0-1.27-.21-2.4-.63-3.4-.42-1-1.04-1.84-1.86-2.51-.82-.68-1.86-1.2-3.13-1.56-1.27-.37-2.92-.55-4.94-.55h-6.59v15.55h8.03c1.55,0,2.85-.16,3.91-.49,1.06-.32,1.97-.8,2.75-1.44s1.38-1.42,1.82-2.37c.44-.94.65-2.02.65-3.23Z"/>
          <path d="m236.65,234.2c0,2.87-.54,5.39-1.61,7.56-1.07,2.17-2.52,3.98-4.35,5.43-1.83,1.45-3.97,2.54-6.42,3.27-2.45.73-5.07,1.1-7.86,1.1-1.89,0-3.64-.16-5.26-.46-1.62-.31-3.05-.68-4.29-1.12-1.24-.44-2.28-.89-3.11-1.37-.83-.48-1.43-.9-1.8-1.27-.37-.37-.63-.89-.78-1.58-.16-.69-.23-1.68-.23-2.98,0-.87.03-1.61.08-2.2.06-.59.15-1.07.28-1.44.13-.37.3-.63.51-.78s.46-.23.74-.23c.39,0,.95.23,1.67.7.72.46,1.64.98,2.77,1.54s2.47,1.08,4.04,1.54,3.37.7,5.43.7c1.35,0,2.56-.16,3.63-.49,1.07-.32,1.98-.78,2.73-1.37.75-.59,1.32-1.32,1.71-2.2.39-.87.59-1.84.59-2.92,0-1.24-.34-2.3-1.01-3.19-.68-.89-1.56-1.68-2.64-2.37-1.08-.69-2.32-1.34-3.7-1.94-1.38-.61-2.8-1.25-4.27-1.92-1.46-.68-2.89-1.44-4.27-2.3-1.38-.86-2.61-1.89-3.7-3.08-1.08-1.2-1.96-2.61-2.64-4.25-.68-1.63-1.01-3.59-1.01-5.87,0-2.62.49-4.92,1.46-6.91.97-1.99,2.28-3.63,3.93-4.94,1.65-1.31,3.59-2.29,5.83-2.94,2.24-.65,4.61-.97,7.12-.97,1.29,0,2.59.1,3.89.3s2.51.46,3.63.8,2.13.72,3,1.14c.87.42,1.45.78,1.73,1.06.28.28.47.52.57.72.1.2.18.46.25.78.07.32.12.73.15,1.23.03.49.04,1.11.04,1.84,0,.82-.02,1.51-.06,2.07s-.11,1.03-.21,1.39c-.1.37-.24.63-.42.8-.18.17-.43.25-.74.25s-.8-.2-1.48-.59c-.68-.39-1.51-.82-2.49-1.29-.99-.46-2.13-.89-3.42-1.27-1.3-.38-2.72-.57-4.27-.57-1.21,0-2.27.15-3.17.44s-1.65.71-2.26,1.23c-.61.52-1.06,1.15-1.35,1.88s-.44,1.51-.44,2.32c0,1.21.33,2.26.99,3.15s1.55,1.68,2.66,2.37c1.11.69,2.37,1.34,3.78,1.94,1.41.61,2.84,1.25,4.31,1.92s2.9,1.44,4.31,2.3c1.41.86,2.66,1.89,3.76,3.08s1.99,2.61,2.66,4.23c.68,1.62,1.01,3.53,1.01,5.73Z"/>
          <path d="m275.18,245.94c0,.85-.04,1.56-.11,2.13-.07.58-.18,1.06-.32,1.44-.14.38-.32.65-.53.82-.21.17-.46.25-.74.25h-25.06c-.93,0-1.71-.27-2.35-.82-.63-.55-.95-1.44-.95-2.68v-49.65c0-.28.09-.54.27-.76.18-.23.49-.41.91-.55.42-.14.99-.25,1.71-.34.72-.08,1.61-.13,2.68-.13s2,.04,2.71.13c.7.08,1.27.2,1.69.34.42.14.73.32.91.55.18.23.27.48.27.76v43.99h17.2c.28,0,.53.08.74.23.21.16.39.41.53.76.14.35.25.82.32,1.39.07.58.11,1.29.11,2.13Z"/>
          <path d="m57.24,277.6c0,.07-.02.14-.07.2-.05.06-.13.11-.24.15s-.26.07-.45.09-.42.03-.7.03-.53-.01-.72-.03-.34-.05-.45-.09c-.11-.04-.19-.09-.23-.15-.05-.06-.07-.13-.07-.2v-5.83h-5.4v5.83c0,.07-.02.14-.07.2-.04.06-.12.11-.23.15-.11.04-.26.07-.45.09-.19.02-.42.03-.71.03s-.52-.01-.71-.03-.34-.05-.45-.09c-.11-.04-.19-.09-.24-.15-.05-.06-.07-.13-.07-.2v-13.63c0-.07.02-.14.07-.2.05-.06.13-.11.24-.14.11-.04.26-.07.45-.09s.43-.03.71-.03.53.01.71.03c.19.02.33.05.45.09.11.04.19.08.23.14.04.06.07.13.07.2v5.3h5.4v-5.3c0-.07.02-.14.07-.2.05-.06.13-.11.23-.14.11-.04.26-.07.45-.09s.43-.03.72-.03.52.01.7.03.33.05.45.09.19.08.24.14c.05.06.07.13.07.2v13.63Z"/>
          <path d="m72.21,276.91c.09.27.15.48.17.64.02.16,0,.27-.09.35-.08.08-.23.13-.43.15-.21.02-.5.03-.86.03s-.67,0-.89-.02c-.21-.01-.37-.03-.49-.07s-.19-.08-.23-.14-.08-.14-.11-.23l-.97-2.9h-5.42l-.91,2.82c-.03.1-.07.19-.12.26-.05.07-.13.13-.23.17-.11.04-.26.07-.46.08-.2.01-.46.02-.78.02-.34,0-.61-.01-.8-.03s-.33-.08-.4-.16c-.07-.09-.1-.21-.08-.36s.08-.36.17-.62l4.45-12.81c.04-.13.1-.23.16-.31s.15-.14.28-.18c.13-.04.31-.07.54-.08.23-.01.54-.02.92-.02.44,0,.79,0,1.05.02.26.01.46.04.61.08.15.04.25.1.31.18.06.08.12.19.16.33l4.46,12.8Zm-6.63-10.59h-.01l-2.04,6.14h4.09l-2.04-6.14Z"/>
          <path d="m78.98,273.99c0,.65-.06,1.24-.18,1.77-.12.52-.33.97-.62,1.34s-.68.65-1.15.84c-.48.19-1.06.29-1.76.29-.22,0-.44-.02-.66-.05s-.42-.08-.6-.13c-.18-.05-.34-.11-.47-.17s-.22-.11-.27-.16c-.04-.05-.08-.1-.11-.15-.03-.05-.06-.12-.08-.21-.02-.08-.04-.19-.04-.32,0-.13-.01-.29-.01-.48,0-.25,0-.47.02-.64.01-.17.03-.31.06-.41.03-.1.06-.17.11-.21.05-.04.11-.06.18-.06.07,0,.15.02.23.07.09.05.19.1.3.15.11.05.24.1.39.15.15.05.32.07.52.07s.38-.03.53-.08.28-.15.38-.29c.1-.14.18-.32.23-.55.05-.23.08-.53.08-.89v-9.92c0-.07.02-.14.07-.2.05-.06.13-.1.23-.14.11-.04.26-.06.45-.08s.43-.03.71-.03.52,0,.7.03c.19.02.34.05.45.08s.2.08.25.14c.05.06.07.12.07.2v10.04Z"/>
          <path d="m85.05,277.6c0,.07-.02.14-.07.2-.05.06-.13.11-.24.15-.11.04-.26.07-.45.09-.19.02-.42.03-.71.03s-.52-.01-.71-.03-.34-.05-.45-.09c-.11-.04-.19-.09-.24-.15-.05-.06-.07-.13-.07-.2v-13.63c0-.07.02-.14.07-.2.05-.06.13-.11.25-.14s.27-.07.45-.09c.19-.02.42-.03.7-.03s.53.01.71.03c.19.02.33.05.45.09.11.04.19.08.24.14s.07.13.07.2v13.63Z"/>
          <path d="m105.18,276.91c.09.27.15.48.17.64.02.16,0,.27-.09.35-.08.08-.23.13-.43.15-.21.02-.5.03-.86.03s-.67,0-.89-.02c-.21-.01-.37-.03-.49-.07s-.19-.08-.23-.14-.08-.14-.11-.23l-.97-2.9h-5.42l-.91,2.82c-.03.1-.07.19-.12.26-.05.07-.13.13-.23.17-.11.04-.26.07-.46.08-.2.01-.46.02-.78.02-.34,0-.61-.01-.8-.03s-.33-.08-.4-.16c-.07-.09-.1-.21-.08-.36s.08-.36.17-.62l4.45-12.81c.04-.13.1-.23.16-.31s.15-.14.28-.18c.13-.04.31-.07.54-.08.23-.01.54-.02.92-.02.44,0,.79,0,1.05.02.26.01.46.04.61.08.15.04.25.1.31.18.06.08.12.19.16.33l4.46,12.8Zm-6.63-10.59h-.01l-2.04,6.14h4.09l-2.04-6.14Z"/>
          <path d="m118.47,277.6c0,.07-.02.14-.07.2-.05.06-.13.11-.24.15s-.26.07-.45.09-.42.03-.7.03-.53-.01-.72-.03-.34-.05-.45-.09c-.11-.04-.19-.09-.23-.15-.05-.06-.07-.13-.07-.2v-5.83h-5.4v5.83c0,.07-.02.14-.07.2-.04.06-.12.11-.23.15-.11.04-.26.07-.45.09-.19.02-.42.03-.71.03s-.52-.01-.71-.03-.34-.05-.45-.09c-.11-.04-.19-.09-.24-.15-.05-.06-.07-.13-.07-.2v-13.63c0-.07.02-.14.07-.2.05-.06.13-.11.24-.14.11-.04.26-.07.45-.09s.43-.03.71-.03.53.01.71.03c.19.02.33.05.45.09.11.04.19.08.23.14.04.06.07.13.07.2v5.3h5.4v-5.3c0-.07.02-.14.07-.2.05-.06.13-.11.23-.14.11-.04.26-.07.45-.09s.43-.03.72-.03.52.01.7.03.33.05.45.09.19.08.24.14c.05.06.07.13.07.2v13.63Z"/>
          <path d="m138.44,277.6c0,.07-.02.14-.06.2-.04.06-.12.11-.22.15-.11.04-.25.07-.43.09-.18.02-.41.03-.68.03s-.49-.01-.67-.03c-.18-.02-.32-.05-.42-.09-.1-.04-.18-.09-.22-.15-.04-.06-.07-.13-.07-.2v-11.75h-.02l-4.18,11.74c-.03.1-.08.18-.15.24-.07.06-.16.11-.27.15s-.26.06-.44.07c-.18.01-.39.02-.65.02s-.47,0-.65-.03-.33-.05-.44-.09-.21-.09-.27-.15c-.07-.06-.11-.13-.13-.21l-4.04-11.74h-.02v11.75c0,.07-.02.14-.06.2-.04.06-.12.11-.23.15s-.25.07-.43.09-.4.03-.67.03-.49-.01-.67-.03c-.18-.02-.32-.05-.43-.09-.11-.04-.18-.09-.22-.15-.04-.06-.06-.13-.06-.2v-12.86c0-.38.1-.67.3-.87s.47-.3.8-.3h1.92c.34,0,.64.03.88.08.25.06.46.15.64.28s.33.3.45.51c.12.21.22.47.31.79l3.12,8.6h.04l3.23-8.58c.1-.31.2-.58.32-.79.12-.21.25-.39.4-.52.15-.13.33-.23.54-.29s.45-.08.73-.08h1.97c.2,0,.37.03.52.08.14.05.26.13.36.23s.16.22.21.37c.05.14.07.31.07.5v12.86Z"/>
          <path d="m153.41,276.91c.09.27.15.48.17.64.02.16,0,.27-.09.35-.08.08-.23.13-.43.15-.21.02-.5.03-.86.03s-.67,0-.89-.02c-.21-.01-.37-.03-.49-.07s-.19-.08-.23-.14-.08-.14-.11-.23l-.97-2.9h-5.42l-.91,2.82c-.03.1-.07.19-.12.26-.05.07-.13.13-.23.17-.11.04-.26.07-.46.08-.2.01-.46.02-.78.02-.34,0-.61-.01-.8-.03s-.33-.08-.4-.16c-.07-.09-.1-.21-.08-.36s.08-.36.17-.62l4.45-12.81c.04-.13.1-.23.16-.31s.15-.14.28-.18c.13-.04.31-.07.54-.08.23-.01.54-.02.92-.02.44,0,.79,0,1.05.02.26.01.46.04.61.08.15.04.25.1.31.18.06.08.12.19.16.33l4.46,12.8Zm-6.63-10.59h-.01l-2.04,6.14h4.09l-2.04-6.14Z"/>
          <path d="m167.42,270.58c0,1.32-.17,2.46-.52,3.4-.35.94-.84,1.71-1.49,2.3-.65.6-1.43,1.03-2.36,1.31-.93.28-2.03.42-3.31.42h-3.45c-.25,0-.45-.07-.62-.22-.17-.14-.25-.38-.25-.71v-12.58c0-.33.08-.56.25-.71.17-.14.37-.22.62-.22h3.7c1.29,0,2.38.15,3.27.45.9.3,1.65.75,2.26,1.34.61.59,1.08,1.32,1.4,2.19.32.87.48,1.88.48,3.02Zm-3.03.1c0-.68-.08-1.32-.24-1.91-.16-.59-.42-1.1-.77-1.53-.35-.43-.81-.77-1.36-1.01-.55-.24-1.28-.36-2.18-.36h-1.48v9.82h1.53c.8,0,1.48-.1,2.03-.31.55-.21,1.01-.52,1.38-.94s.64-.94.83-1.57c.18-.62.27-1.35.27-2.19Z"/>
          <path d="m185.44,273.68c0,.51-.07.98-.21,1.39-.14.42-.34.78-.59,1.1-.25.32-.55.59-.89.83-.35.23-.73.42-1.14.57-.42.15-.86.26-1.33.33-.47.07-1,.11-1.58.11h-3.84c-.25,0-.45-.07-.62-.22-.17-.14-.25-.38-.25-.71v-12.58c0-.33.08-.56.25-.71.17-.14.37-.22.62-.22h3.62c.88,0,1.63.07,2.25.22s1.13.37,1.55.67c.42.3.74.68.96,1.14.22.46.33,1,.33,1.63,0,.35-.04.68-.13.99-.09.31-.22.59-.39.84-.17.25-.38.48-.63.67s-.53.35-.85.47c.41.07.79.21,1.13.39.35.19.65.43.9.72s.46.64.61,1.03c.15.39.22.84.22,1.33Zm-3.79-6.08c0-.29-.04-.55-.13-.78-.09-.23-.22-.42-.4-.58-.18-.15-.4-.27-.67-.35-.27-.08-.63-.12-1.09-.12h-1.48v3.75h1.64c.42,0,.76-.05,1.01-.15.25-.1.46-.24.63-.41s.29-.38.37-.61c.08-.23.12-.48.12-.74Zm.75,6.18c0-.33-.06-.63-.17-.9-.11-.26-.28-.49-.49-.66-.22-.18-.49-.32-.83-.41-.33-.1-.77-.15-1.3-.15h-1.74v4.11h2.12c.41,0,.75-.04,1.03-.13.28-.09.52-.21.72-.38.21-.17.36-.38.48-.62.11-.25.17-.53.17-.85Z"/>
          <path d="m198.51,277.63c0,.08-.02.15-.04.21s-.1.1-.21.14-.28.06-.49.08c-.22.01-.51.02-.88.02-.31,0-.56,0-.75-.02-.19-.02-.33-.04-.44-.08-.11-.04-.18-.09-.23-.16-.04-.06-.08-.14-.11-.23l-1.29-3.22c-.16-.36-.31-.69-.46-.97-.15-.28-.31-.52-.5-.71-.18-.19-.39-.33-.63-.43s-.51-.15-.83-.15h-.92v5.5c0,.07-.02.14-.07.2-.05.06-.13.11-.24.15s-.26.07-.45.09-.42.03-.71.03-.52-.01-.71-.03-.34-.05-.45-.09-.19-.09-.23-.15c-.04-.06-.07-.13-.07-.2v-13.11c0-.33.08-.56.25-.71.17-.14.37-.22.62-.22h3.74c.38,0,.69,0,.94.02.25.02.47.03.67.06.58.08,1.1.22,1.57.42.46.2.86.46,1.18.79s.57.71.74,1.15c.17.44.26.95.26,1.52,0,.48-.06.92-.18,1.32-.12.4-.3.75-.54,1.07s-.53.58-.88.81c-.35.23-.75.42-1.19.56.22.1.42.23.61.38.19.15.37.33.54.54s.33.45.47.72c.15.27.29.58.43.92l1.22,2.84c.11.28.19.49.22.62.04.13.06.23.06.31Zm-3.78-9.79c0-.48-.11-.88-.32-1.21-.22-.33-.57-.56-1.06-.69-.15-.04-.32-.07-.51-.09s-.45-.03-.79-.03h-1.32v4.09h1.5c.42,0,.78-.05,1.09-.15.31-.1.57-.24.78-.42.21-.18.36-.4.47-.65.1-.25.16-.54.16-.85Z"/>
          <path d="m213.42,270.62c0,1.2-.15,2.27-.45,3.21s-.74,1.75-1.33,2.4c-.59.66-1.31,1.16-2.18,1.51-.87.35-1.87.52-3.01.52s-2.1-.15-2.94-.44c-.84-.29-1.53-.74-2.09-1.34s-.98-1.37-1.25-2.3c-.28-.93-.42-2.03-.42-3.3,0-1.17.15-2.22.45-3.15.3-.93.74-1.73,1.33-2.38s1.31-1.16,2.18-1.51,1.87-.52,3.02-.52,2.06.14,2.9.43c.84.29,1.54.74,2.1,1.34s.99,1.36,1.27,2.28c.29.92.43,2,.43,3.25Zm-3.08.16c0-.76-.06-1.45-.18-2.07-.12-.62-.32-1.15-.61-1.6-.29-.44-.67-.78-1.14-1.03-.48-.24-1.07-.36-1.79-.36s-1.32.14-1.81.41-.87.63-1.17,1.09c-.3.45-.51.98-.63,1.59-.12.61-.18,1.25-.18,1.92,0,.79.06,1.5.18,2.12.12.63.32,1.17.6,1.61.28.45.66.79,1.14,1.02.48.23,1.08.35,1.8.35s1.32-.13,1.81-.4.87-.63,1.17-1.09c.3-.46.51-1,.63-1.61.12-.61.18-1.27.18-1.96Z"/>
          <path d="m224.99,264.77c0,.22,0,.4-.03.55s-.05.28-.08.37c-.04.09-.08.16-.14.21s-.12.07-.18.07h-3.61v11.63c0,.07-.02.14-.07.2-.05.06-.13.11-.24.15-.11.04-.26.07-.45.09s-.43.03-.71.03-.52-.01-.71-.03-.34-.05-.45-.09c-.11-.04-.19-.09-.24-.15-.05-.06-.07-.13-.07-.2v-11.63h-3.61c-.08,0-.14-.02-.19-.07-.05-.04-.1-.11-.13-.21s-.06-.22-.08-.37-.03-.34-.03-.55,0-.41.03-.57.05-.28.08-.37.08-.16.13-.2c.05-.04.12-.06.19-.06h10.17c.07,0,.13.02.18.06.06.04.1.11.14.2.04.09.06.22.08.37s.03.35.03.57Z"/>
          <path d="m237.96,277.6c0,.07-.02.14-.07.2-.05.06-.13.11-.24.15s-.26.07-.45.09-.42.03-.7.03-.53-.01-.72-.03-.34-.05-.45-.09c-.11-.04-.19-.09-.23-.15-.05-.06-.07-.13-.07-.2v-5.83h-5.4v5.83c0,.07-.02.14-.07.2-.04.06-.12.11-.23.15-.11.04-.26.07-.45.09-.19.02-.42.03-.71.03s-.52-.01-.71-.03-.34-.05-.45-.09c-.11-.04-.19-.09-.24-.15-.05-.06-.07-.13-.07-.2v-13.63c0-.07.02-.14.07-.2.05-.06.13-.11.24-.14.11-.04.26-.07.45-.09s.43-.03.71-.03.53.01.71.03c.19.02.33.05.45.09.11.04.19.08.23.14.04.06.07.13.07.2v5.3h5.4v-5.3c0-.07.02-.14.07-.2.05-.06.13-.11.23-.14.11-.04.26-.07.45-.09s.43-.03.72-.03.52.01.7.03.33.05.45.09.19.08.24.14c.05.06.07.13.07.2v13.63Z"/>
          <path d="m249.66,276.86c0,.22,0,.4-.03.54-.02.15-.05.26-.08.35-.04.09-.08.15-.14.2s-.12.06-.18.06h-7.25c-.25,0-.45-.07-.62-.22-.17-.14-.25-.38-.25-.71v-12.58c0-.33.08-.56.25-.71.17-.14.37-.22.62-.22h7.21c.07,0,.13.02.18.06.05.04.1.1.13.2.04.09.06.21.08.36.02.15.03.33.03.55,0,.21,0,.38-.03.53-.02.15-.05.26-.08.35s-.08.15-.13.2c-.05.04-.11.06-.18.06h-5.15v3.52h4.36c.07,0,.13.02.18.06.06.04.1.1.14.19.04.09.07.2.08.35.02.14.03.32.03.53s0,.39-.03.54c-.02.14-.05.25-.08.34-.04.08-.08.15-.14.18-.06.04-.12.06-.18.06h-4.36v4.07h5.2c.07,0,.13.02.18.06s.1.11.14.2c.04.09.06.21.08.35.02.15.03.33.03.54Z"/>
          <path d="m262.96,277.63c0,.08-.02.15-.04.21s-.1.1-.21.14-.28.06-.49.08c-.22.01-.51.02-.88.02-.31,0-.56,0-.75-.02-.19-.02-.33-.04-.44-.08-.11-.04-.18-.09-.23-.16-.04-.06-.08-.14-.11-.23l-1.29-3.22c-.16-.36-.31-.69-.46-.97-.15-.28-.31-.52-.5-.71-.18-.19-.39-.33-.63-.43s-.51-.15-.83-.15h-.92v5.5c0,.07-.02.14-.07.2-.05.06-.13.11-.24.15s-.26.07-.45.09-.42.03-.71.03-.52-.01-.71-.03-.34-.05-.45-.09-.19-.09-.23-.15c-.04-.06-.07-.13-.07-.2v-13.11c0-.33.08-.56.25-.71.17-.14.37-.22.62-.22h3.74c.38,0,.69,0,.94.02.25.02.47.03.67.06.58.08,1.1.22,1.57.42.46.2.86.46,1.18.79s.57.71.74,1.15c.17.44.26.95.26,1.52,0,.48-.06.92-.18,1.32-.12.4-.3.75-.54,1.07s-.53.58-.88.81c-.35.23-.75.42-1.19.56.22.1.42.23.61.38.19.15.37.33.54.54s.33.45.47.72c.15.27.29.58.43.92l1.22,2.84c.11.28.19.49.22.62.04.13.06.23.06.31Zm-3.78-9.79c0-.48-.11-.88-.32-1.21-.22-.33-.57-.56-1.06-.69-.15-.04-.32-.07-.51-.09s-.45-.03-.79-.03h-1.32v4.09h1.5c.42,0,.78-.05,1.09-.15.31-.1.57-.24.78-.42.21-.18.36-.4.47-.65.1-.25.16-.54.16-.85Z"/>
          <path d="m273.45,273.68c0,.76-.14,1.42-.42,2-.28.57-.67,1.05-1.15,1.43-.48.38-1.05.67-1.7.87-.65.19-1.34.29-2.08.29-.5,0-.96-.04-1.39-.12s-.8-.18-1.13-.3c-.33-.12-.6-.24-.82-.36-.22-.13-.38-.24-.47-.33-.1-.1-.17-.24-.21-.42-.04-.18-.06-.44-.06-.79,0-.23,0-.42.02-.58.02-.16.04-.28.07-.38.03-.1.08-.17.13-.21s.12-.06.2-.06c.1,0,.25.06.44.18.19.12.43.26.73.41.3.15.65.28,1.07.41.41.12.89.18,1.43.18.36,0,.68-.04.96-.13.28-.09.52-.21.72-.36.2-.16.35-.35.45-.58.1-.23.16-.49.16-.77,0-.33-.09-.61-.27-.84-.18-.23-.41-.44-.7-.62-.29-.18-.61-.35-.98-.51-.36-.16-.74-.33-1.13-.51s-.76-.38-1.13-.61c-.37-.23-.69-.5-.98-.81-.29-.32-.52-.69-.7-1.12-.18-.43-.27-.95-.27-1.55,0-.69.13-1.3.38-1.82s.6-.96,1.04-1.31c.44-.35.95-.6,1.54-.77.59-.17,1.22-.26,1.88-.26.34,0,.68.03,1.03.08.34.05.66.12.96.21.3.09.56.19.79.3s.38.21.46.28.12.14.15.19c.03.05.05.12.07.21.02.09.03.19.04.32,0,.13.01.29.01.49,0,.21,0,.4-.02.55-.01.15-.03.27-.06.37s-.06.17-.11.21c-.05.04-.11.07-.2.07s-.21-.05-.39-.16-.4-.22-.66-.34c-.26-.12-.56-.23-.9-.33s-.72-.15-1.13-.15c-.32,0-.6.04-.84.12-.24.08-.44.19-.6.32-.16.14-.28.3-.36.5s-.12.4-.12.61c0,.32.09.6.26.83.17.23.41.44.7.62.29.18.63.35,1,.51.37.16.75.33,1.14.51.39.18.77.38,1.14.61.37.23.7.5.99.81.29.32.52.69.7,1.12s.27.93.27,1.51Z"/>
          <path d="m93.81,301.09c0,.76-.14,1.42-.42,2-.28.57-.67,1.05-1.15,1.43-.48.38-1.05.67-1.7.87-.65.19-1.34.29-2.08.29-.5,0-.96-.04-1.39-.12s-.8-.18-1.13-.3c-.33-.12-.6-.24-.82-.36-.22-.13-.38-.24-.47-.33-.1-.1-.17-.24-.21-.42-.04-.18-.06-.44-.06-.79,0-.23,0-.42.02-.58.02-.16.04-.28.07-.38.03-.1.08-.17.13-.21s.12-.06.2-.06c.1,0,.25.06.44.18.19.12.43.26.73.41.3.15.65.28,1.07.41.41.12.89.18,1.43.18.36,0,.68-.04.96-.13.28-.09.52-.21.72-.36.2-.16.35-.35.45-.58.1-.23.16-.49.16-.77,0-.33-.09-.61-.27-.84-.18-.23-.41-.44-.7-.62-.29-.18-.61-.35-.98-.51-.36-.16-.74-.33-1.13-.51s-.76-.38-1.13-.61c-.37-.23-.69-.5-.98-.81-.29-.32-.52-.69-.7-1.12-.18-.43-.27-.95-.27-1.55,0-.69.13-1.3.38-1.82s.6-.96,1.04-1.31c.44-.35.95-.6,1.54-.77.59-.17,1.22-.26,1.88-.26.34,0,.68.03,1.03.08.34.05.66.12.96.21.3.09.56.19.79.3s.38.21.46.28.12.14.15.19c.03.05.05.12.07.21.02.09.03.19.04.32,0,.13.01.29.01.49,0,.21,0,.4-.02.55-.01.15-.03.27-.06.37s-.06.17-.11.21c-.05.04-.11.07-.2.07s-.21-.05-.39-.16-.4-.22-.66-.34c-.26-.12-.56-.23-.9-.33s-.72-.15-1.13-.15c-.32,0-.6.04-.84.12-.24.08-.44.19-.6.32-.16.14-.28.3-.36.5s-.12.4-.12.61c0,.32.09.6.26.83.17.23.41.44.7.62.29.18.63.35,1,.51.37.16.75.33,1.14.51.39.18.77.38,1.14.61.37.23.7.5.99.81.29.32.52.69.7,1.12s.27.93.27,1.51Z"/>
          <path d="m104.61,304.27c0,.22,0,.4-.03.54-.02.15-.05.26-.08.35-.04.09-.08.15-.14.2s-.12.06-.18.06h-7.25c-.25,0-.45-.07-.62-.22-.17-.14-.25-.38-.25-.71v-12.58c0-.33.08-.56.25-.71.17-.14.37-.22.62-.22h7.21c.07,0,.13.02.18.06.05.04.1.1.13.2.04.09.06.21.08.36.02.15.03.33.03.55,0,.21,0,.38-.03.53-.02.15-.05.26-.08.35s-.08.15-.13.2c-.05.04-.11.06-.18.06h-5.15v3.52h4.36c.07,0,.13.02.18.06.06.04.1.1.14.19.04.09.07.2.08.35.02.14.03.32.03.53s0,.39-.03.54c-.02.14-.05.25-.08.34-.04.08-.08.15-.14.18-.06.04-.12.06-.18.06h-4.36v4.07h5.2c.07,0,.13.02.18.06s.1.11.14.2c.04.09.06.21.08.35.02.15.03.33.03.54Z"/>
          <path d="m116.84,303.23c0,.19,0,.34-.02.47-.01.13-.03.24-.05.33-.02.09-.05.17-.09.24-.04.07-.1.14-.18.23-.08.09-.24.2-.47.33s-.52.26-.86.38c-.34.12-.73.22-1.16.31-.44.08-.91.12-1.41.12-.99,0-1.88-.15-2.68-.46-.8-.31-1.47-.76-2.03-1.37-.56-.61-.99-1.36-1.28-2.27-.3-.91-.45-1.96-.45-3.17s.16-2.32.49-3.27c.33-.95.78-1.75,1.37-2.4.59-.65,1.29-1.14,2.11-1.47.82-.33,1.73-.5,2.72-.5.4,0,.79.03,1.16.1.37.07.72.16,1.03.26.32.11.6.23.85.37.25.14.43.26.53.36.1.1.17.18.21.25.04.07.07.15.09.26.02.1.04.23.05.37.01.14.02.32.02.52,0,.22,0,.41-.02.57-.02.16-.04.28-.08.38-.04.1-.08.17-.13.21-.05.04-.11.07-.18.07-.11,0-.25-.07-.42-.2s-.39-.28-.66-.43c-.27-.16-.59-.31-.97-.44-.38-.13-.82-.2-1.34-.2-.57,0-1.08.12-1.53.35s-.83.57-1.15,1c-.32.44-.56.96-.72,1.58-.16.62-.25,1.31-.25,2.09,0,.85.09,1.58.26,2.2s.42,1.13.75,1.53c.32.4.71.7,1.17.9.46.2.97.3,1.54.3.52,0,.97-.06,1.35-.18s.7-.26.98-.41c.27-.15.49-.28.67-.4s.31-.18.41-.18c.07,0,.13.01.18.04.04.03.08.09.11.18.03.09.05.21.07.37.02.16.02.37.02.64Z"/>
          <path d="m130.73,300.04c0,.88-.13,1.68-.39,2.38-.26.7-.64,1.29-1.15,1.77-.51.48-1.13.85-1.87,1.1-.74.25-1.6.38-2.57.38-.91,0-1.72-.11-2.44-.34-.72-.23-1.33-.57-1.83-1.03-.5-.46-.88-1.04-1.14-1.72-.26-.69-.4-1.49-.4-2.42v-8.78c0-.07.02-.14.07-.2.04-.06.12-.11.24-.14s.27-.07.45-.09.42-.03.71-.03.52.01.7.03c.19.02.33.05.45.09.11.04.19.08.24.14.05.06.07.13.07.2v8.52c0,.57.07,1.07.21,1.49.14.42.34.77.61,1.04s.58.48.95.62.78.21,1.23.21.87-.07,1.24-.21c.36-.14.67-.35.93-.62s.45-.61.59-1c.14-.4.21-.85.21-1.36v-8.69c0-.07.02-.14.07-.2s.12-.11.23-.14.26-.07.45-.09c.19-.02.43-.03.71-.03s.51.01.7.03c.18.02.33.05.44.09s.19.08.23.14.07.13.07.2v8.66Z"/>
          <path d="m144.58,305.04c0,.08-.02.15-.04.21s-.1.1-.21.14-.28.06-.49.08c-.22.01-.51.02-.88.02-.31,0-.56,0-.75-.02-.19-.02-.33-.04-.44-.08-.11-.04-.18-.09-.23-.16-.04-.06-.08-.14-.11-.23l-1.29-3.22c-.16-.36-.31-.69-.46-.97-.15-.28-.31-.52-.5-.71-.18-.19-.39-.33-.63-.43s-.51-.15-.83-.15h-.92v5.5c0,.07-.02.14-.07.2-.05.06-.13.11-.24.15s-.26.07-.45.09-.42.03-.71.03-.52-.01-.71-.03-.34-.05-.45-.09-.19-.09-.23-.15c-.04-.06-.07-.13-.07-.2v-13.11c0-.33.08-.56.25-.71.17-.14.37-.22.62-.22h3.74c.38,0,.69,0,.94.02.25.02.47.03.67.06.58.08,1.1.22,1.57.42.46.2.86.46,1.18.79s.57.71.74,1.15c.17.44.26.95.26,1.52,0,.48-.06.92-.18,1.32-.12.4-.3.75-.54,1.07s-.53.58-.88.81c-.35.23-.75.42-1.19.56.22.1.42.23.61.38.19.15.37.33.54.54s.33.45.47.72c.15.27.29.58.43.92l1.22,2.84c.11.28.19.49.22.62.04.13.06.23.06.31Zm-3.78-9.79c0-.48-.11-.88-.32-1.21-.22-.33-.57-.56-1.06-.69-.15-.04-.32-.07-.51-.09s-.45-.03-.79-.03h-1.32v4.09h1.5c.42,0,.78-.05,1.09-.15.31-.1.57-.24.78-.42.21-.18.36-.4.47-.65.1-.25.16-.54.16-.85Z"/>
          <path d="m149.67,305.02c0,.07-.02.14-.07.2-.05.06-.13.11-.24.15-.11.04-.26.07-.45.09-.19.02-.42.03-.71.03s-.52-.01-.71-.03-.34-.05-.45-.09c-.11-.04-.19-.09-.24-.15-.05-.06-.07-.13-.07-.2v-13.63c0-.07.02-.14.07-.2.05-.06.13-.11.25-.14s.27-.07.45-.09c.19-.02.42-.03.7-.03s.53.01.71.03c.19.02.33.05.45.09.11.04.19.08.24.14s.07.13.07.2v13.63Z"/>
          <path d="m162.42,292.19c0,.22,0,.4-.03.55s-.05.28-.08.37c-.04.09-.08.16-.14.21s-.12.07-.18.07h-3.61v11.63c0,.07-.02.14-.07.2-.05.06-.13.11-.24.15-.11.04-.26.07-.45.09s-.43.03-.71.03-.52-.01-.71-.03-.34-.05-.45-.09c-.11-.04-.19-.09-.24-.15-.05-.06-.07-.13-.07-.2v-11.63h-3.61c-.08,0-.14-.02-.19-.07-.05-.04-.1-.11-.13-.21s-.06-.22-.08-.37-.03-.34-.03-.55,0-.41.03-.57.05-.28.08-.37.08-.16.13-.2c.05-.04.12-.06.19-.06h10.17c.07,0,.13.02.18.06.06.04.1.11.14.2.04.09.06.22.08.37s.03.35.03.57Z"/>
          <path d="m167.08,305.02c0,.07-.02.14-.07.2-.05.06-.13.11-.24.15-.11.04-.26.07-.45.09-.19.02-.42.03-.71.03s-.52-.01-.71-.03-.34-.05-.45-.09c-.11-.04-.19-.09-.24-.15-.05-.06-.07-.13-.07-.2v-13.63c0-.07.02-.14.07-.2.05-.06.13-.11.25-.14s.27-.07.45-.09c.19-.02.42-.03.7-.03s.53.01.71.03c.19.02.33.05.45.09.11.04.19.08.24.14s.07.13.07.2v13.63Z"/>
          <path d="m178.78,304.27c0,.22,0,.4-.03.54-.02.15-.05.26-.08.35-.04.09-.08.15-.14.2s-.12.06-.18.06h-7.25c-.25,0-.45-.07-.62-.22-.17-.14-.25-.38-.25-.71v-12.58c0-.33.08-.56.25-.71.17-.14.37-.22.62-.22h7.21c.07,0,.13.02.18.06.05.04.1.1.13.2.04.09.06.21.08.36.02.15.03.33.03.55,0,.21,0,.38-.03.53-.02.15-.05.26-.08.35s-.08.15-.13.2c-.05.04-.11.06-.18.06h-5.15v3.52h4.36c.07,0,.13.02.18.06.06.04.1.1.14.19.04.09.07.2.08.35.02.14.03.32.03.53s0,.39-.03.54c-.02.14-.05.25-.08.34-.04.08-.08.15-.14.18-.06.04-.12.06-.18.06h-4.36v4.07h5.2c.07,0,.13.02.18.06s.1.11.14.2c.04.09.06.21.08.35.02.15.03.33.03.54Z"/>
          <path d="m189.7,301.09c0,.76-.14,1.42-.42,2-.28.57-.67,1.05-1.15,1.43-.48.38-1.05.67-1.7.87-.65.19-1.34.29-2.08.29-.5,0-.96-.04-1.39-.12s-.8-.18-1.13-.3c-.33-.12-.6-.24-.82-.36-.22-.13-.38-.24-.47-.33-.1-.1-.17-.24-.21-.42-.04-.18-.06-.44-.06-.79,0-.23,0-.42.02-.58.02-.16.04-.28.07-.38.03-.1.08-.17.13-.21s.12-.06.2-.06c.1,0,.25.06.44.18.19.12.43.26.73.41.3.15.65.28,1.07.41.41.12.89.18,1.43.18.36,0,.68-.04.96-.13.28-.09.52-.21.72-.36.2-.16.35-.35.45-.58.1-.23.16-.49.16-.77,0-.33-.09-.61-.27-.84-.18-.23-.41-.44-.7-.62-.29-.18-.61-.35-.98-.51-.36-.16-.74-.33-1.13-.51s-.76-.38-1.13-.61c-.37-.23-.69-.5-.98-.81-.29-.32-.52-.69-.7-1.12-.18-.43-.27-.95-.27-1.55,0-.69.13-1.3.38-1.82s.6-.96,1.04-1.31c.44-.35.95-.6,1.54-.77.59-.17,1.22-.26,1.88-.26.34,0,.68.03,1.03.08.34.05.66.12.96.21.3.09.56.19.79.3s.38.21.46.28.12.14.15.19c.03.05.05.12.07.21.02.09.03.19.04.32,0,.13.01.29.01.49,0,.21,0,.4-.02.55-.01.15-.03.27-.06.37s-.06.17-.11.21c-.05.04-.11.07-.2.07s-.21-.05-.39-.16-.4-.22-.66-.34c-.26-.12-.56-.23-.9-.33s-.72-.15-1.13-.15c-.32,0-.6.04-.84.12-.24.08-.44.19-.6.32-.16.14-.28.3-.36.5s-.12.4-.12.61c0,.32.09.6.26.83.17.23.41.44.7.62.29.18.63.35,1,.51.37.16.75.33,1.14.51.39.18.77.38,1.14.61.37.23.7.5.99.81.29.32.52.69.7,1.12s.27.93.27,1.51Z"/>
          <path d="m205.04,304.19c0,.22,0,.41-.03.56-.02.15-.05.28-.08.38s-.08.17-.14.22c-.06.04-.12.07-.19.07h-6.62c-.25,0-.45-.07-.62-.22-.17-.14-.25-.38-.25-.71v-13.11c0-.07.02-.14.07-.2.05-.06.13-.11.24-.14.11-.04.26-.07.45-.09s.43-.03.71-.03.53.01.71.03c.19.02.33.05.45.09.11.04.19.08.24.14s.07.13.07.2v11.61h4.54c.07,0,.14.02.19.06.06.04.1.11.14.2s.07.22.08.37.03.34.03.56Z"/>
          <path d="m214.7,292.19c0,.22,0,.4-.03.55s-.05.28-.08.37c-.04.09-.08.16-.14.21s-.12.07-.18.07h-3.61v11.63c0,.07-.02.14-.07.2-.05.06-.13.11-.24.15-.11.04-.26.07-.45.09s-.43.03-.71.03-.52-.01-.71-.03-.34-.05-.45-.09c-.11-.04-.19-.09-.24-.15-.05-.06-.07-.13-.07-.2v-11.63h-3.61c-.08,0-.14-.02-.19-.07-.05-.04-.1-.11-.13-.21s-.06-.22-.08-.37-.03-.34-.03-.55,0-.41.03-.57.05-.28.08-.37.08-.16.13-.2c.05-.04.12-.06.19-.06h10.17c.07,0,.13.02.18.06.06.04.1.11.14.2.04.09.06.22.08.37s.03.35.03.57Z"/>
          <path d="m228.4,297.99c0,1.32-.17,2.46-.52,3.4-.35.94-.84,1.71-1.49,2.3-.65.6-1.43,1.03-2.36,1.31-.93.28-2.03.42-3.31.42h-3.45c-.25,0-.45-.07-.62-.22-.17-.14-.25-.38-.25-.71v-12.58c0-.33.08-.56.25-.71.17-.14.37-.22.62-.22h3.7c1.29,0,2.38.15,3.27.45.9.3,1.65.75,2.26,1.34.61.59,1.08,1.32,1.4,2.19.32.87.48,1.88.48,3.02Zm-3.03.1c0-.68-.08-1.32-.24-1.91-.16-.59-.42-1.1-.77-1.53-.35-.43-.81-.77-1.36-1.01-.55-.24-1.28-.36-2.18-.36h-1.48v9.82h1.53c.8,0,1.48-.1,2.03-.31.55-.21,1.01-.52,1.38-.94s.64-.94.83-1.57c.18-.62.27-1.35.27-2.19Z"/>
          <path d="m233.44,303.82c0,.69-.12,1.16-.36,1.39-.24.24-.67.36-1.3.36s-1.06-.12-1.29-.35c-.24-.23-.36-.68-.36-1.33,0-.7.12-1.17.36-1.41.24-.24.68-.36,1.31-.36s1.04.12,1.28.35c.24.23.36.68.36,1.34Z"/>
        </g>
      </g>
    </g>
  </g>
</svg>